
<svg width="178" height="200" viewBox="0 0 178 168" fill="none" xmlns="http://www.w3.org/2000/svg">
<g filter="url(#filter0_d)">
<mask id="mask0" mask-type="alpha" maskUnits="userSpaceOnUse" x="38" y="32" width="116" height="111">
<path d="M152.81 87.5C152.81 117.56 127.373 142 95.9048 142C64.4367 142 39 117.56 39 87.5C39 57.44 64.4367 33 95.9048 33C127.373 33 152.81 57.44 152.81 87.5Z" fill="#38C8C8" fill-opacity="0.98" stroke="black" stroke-width="2"/>
</mask>
<g mask="url(#mask0)">
<path d="M153.31 87.5C153.31 117.856 127.629 142.5 95.9048 142.5C64.1808 142.5 38.5 117.856 38.5 87.5C38.5 57.1441 64.1808 32.5 95.9048 32.5C127.629 32.5 153.31 57.1441 153.31 87.5Z" fill="#28F7F7" fill-opacity="0.98" stroke="black"/>
</g>
<path d="M82.913 41.6885L80.7391 40.0492L79.4348 39.0246L78.1304 38H75.087L64.2174 41.6885L53.7826 51.9344L49 58.9016L51.1739 62.5902V67.0984V72.0164L53.7826 77.3443L57.6957 79.8033L62.4783 82.6721V85.9508L68.5652 90.8689V95.7869V103.164L73.3478 110.541V115.459L78.1304 119.967L82.0435 127.344V133.492L82.913 135.951V138L85.5217 135.951L87.2609 134.311L89.8696 131.033L91.6087 128.984V125.705V122.426V119.967L89.8696 118.738V115.459V113.41L91.6087 110.541L93.3478 106.852H95.087L96.3913 104.803L98.1304 103.164L99 102.344V100.705V98.2459V95.7869L96.3913 93.3279L95.087 90.8689L91.6087 89.6393L87.2609 88L85.5217 83.9016L80.7391 82.6721L78.1304 83.9016L73.3478 85.9508H68.5652L65.5217 82.6721L62.4783 75.2951L60.7391 72.0164L59 67.0984L62.4783 63.8197L66.8261 65.8689L68.5652 69.1475L70.7391 72.0164L73.3478 69.1475L75.087 65.8689L78.1304 61.3607L80.7391 58.9016L85.5217 57.2623H89.8696H93.3478H96.3913V54.8033V53.5738V51.9344C95.5217 51.5246 93.3478 49.9672 91.6087 47.0164C90.5652 45.7049 91.1739 45.377 91.6087 45.377H89.8696L88.5652 47.0164L85.5217 48.6557V47.0164L82.913 45.377V41.6885Z" fill="#3BC838"/>
<path d="M133 68H144.812L142.188 70.8194L139.125 73.6389L142.188 79.6806L144.812 86.9306L147 91.3611V96.1944L142.188 99.8194L139.125 106.264V112.306V119.958L133 126H127.312L121.625 119.958V112.306V106.264V99.8194L117.688 93.7778L110.25 91.3611V86.9306L108.062 82.9028L105 76.8611V73.6389L110.25 68H121.625H133Z" fill="#3BC838" stroke="black" stroke-opacity="0.02"/>
<path d="M103.745 41.8878L103.506 35.4193L112.798 35.0767L125.868 41.0721L137.878 54.3934L142.969 60.2781L143.043 62.2995L138.102 60.4576L133.752 62.6421L129.253 60.7839L126.464 57.2433L122.924 57.3738L117.749 61.208L117.615 57.5695L117.406 51.9096L120.384 48.5612L126.136 48.3491L126.047 45.9234L122.507 46.0539L120.116 41.2842L117.019 41.3984L113.215 46.3965L108.88 48.9854L103.924 46.7391L103.745 41.8878Z" fill="#3BC838"/>
<g filter="url(#filter1_d)">
<path d="M19.1463 32.0907C17.4241 31.0234 31.7241 39.8854 19.1463 32.0907ZM19.1463 32.0907C19.1463 32.0907 82.2443 37.8353 71.4171 41.4965C66.7888 42.4271 62.598 44.41 58.4455 46.5477C55.1256 48.2569 46.2769 58.397 44.2948 61.4329C43.0479 63.3427 41.7473 65.0682 40.7866 67.135C40.0683 68.6806 39.9425 70.4415 39.4564 72.0504C37.1146 79.8007 40.5729 89.4046 46.2851 94.8696C49.2394 97.6961 52.6572 100.416 56.4381 102.24C62.3459 105.089 68.6229 107.536 74.9603 109.535C81.0015 111.44 153.234 126.054 159.392 127.57M159.392 127.57C164.013 128.707 154.783 126.431 159.392 127.57ZM159.392 127.57C162.029 128.221 112.954 117.417 115.574 118.116M159.392 127.57C162.576 128.453 156.2 126.669 159.392 127.57ZM159.392 127.57C160.967 128.014 157.85 127.076 159.392 127.57Z" stroke="black" stroke-width="2" stroke-linecap="round" stroke-linejoin="round"/>
</g>
<path d="M159.764 121.196L170.712 130.317L156.937 133.967L159.764 121.196Z" fill="#3BC838" stroke="black"/>
</g>
<defs>
<filter id="filter0_d" x="-4" y="0.120071" width="181.366" height="167.81" filterUnits="userSpaceOnUse" color-interpolation-filters="sRGB">
<feFlood flood-opacity="0" result="BackgroundImageFix"/>
<feColorMatrix in="SourceAlpha" type="matrix" values="0 0 0 0 0 0 0 0 0 0 0 0 0 0 0 0 0 0 127 0"/>
<feOffset dy="4"/>
<feGaussianBlur stdDeviation="2"/>
<feColorMatrix type="matrix" values="0 0 0 0 0 0 0 0 0 0 0 0 0 0 0 0 0 0 0.25 0"/>
<feBlend mode="normal" in2="BackgroundImageFix" result="effect1_dropShadow"/>
<feBlend mode="normal" in="SourceGraphic" in2="effect1_dropShadow" result="shape"/>
</filter>
<filter id="filter1_d" x="14.0556" y="0.120071" width="151.505" height="167.81" filterUnits="userSpaceOnUse" color-interpolation-filters="sRGB">
<feFlood flood-opacity="0" result="BackgroundImageFix"/>
<feColorMatrix in="SourceAlpha" type="matrix" values="0 0 0 0 0 0 0 0 0 0 0 0 0 0 0 0 0 0 127 0"/>
<feOffset dy="4"/>
<feGaussianBlur stdDeviation="2"/>
<feColorMatrix type="matrix" values="0 0 0 0 0 0 0 0 0 0 0 0 0 0 0 0 0 0 0.25 0"/>
<feBlend mode="normal" in2="BackgroundImageFix" result="effect1_dropShadow"/>
<feBlend mode="normal" in="SourceGraphic" in2="effect1_dropShadow" result="shape"/>
</filter>
</defs>
</svg>
