<svg
  width="171"
  height="120"
  viewBox="0 0 171 120"
  fill="none"
  xmlns="http://www.w3.org/2000/svg"
>
  <g filter="url(#filter0_d)">
    <mask
      id="mask0"
      mask-type="alpha"
      maskUnits="userSpaceOnUse"
      x="38"
      y="1"
      width="116"
      height="111"
    >
      <path
        d="M152.81 56.5C152.81 86.56 127.373 111 95.9048 111C64.4367 111 39 86.56 39 56.5C39 26.44 64.4367 2 95.9048 2C127.373 2 152.81 26.44 152.81 56.5Z"
        fill="#38C8C8"
        fill-opacity="0.98"
        stroke="black"
        stroke-width="2"
      />
    </mask>
    <g mask="url(#mask0)">
      <path
        d="M153.31 56.5C153.31 86.8559 127.629 111.5 95.9048 111.5C64.1808 111.5 38.5 86.8559 38.5 56.5C38.5 26.1441 64.1808 1.5 95.9048 1.5C127.629 1.5 153.31 26.1441 153.31 56.5Z"
        fill="#38C8C8"
        fill-opacity="0.98"
        stroke="black"
      />
    </g>
    <path
      d="M83.2348 10.6885L81.1043 9.04918L79.8261 8.02459L78.5478 7H75.5652L64.913 10.6885L54.687 20.9344L50 27.9016L52.1304 31.5902V36.0984V41.0164L54.687 46.3443L58.5217 48.8033L63.2087 51.6721V54.9508L69.1739 59.8689V64.7869V72.1639L73.8609 79.541V84.459L78.5478 88.9672L82.3826 96.3443V102.492L83.2348 104.951V107L85.7913 104.951L87.4957 103.311L90.0522 100.033L91.7565 97.9836V94.7049V91.4262V88.9672L90.0522 87.7377V84.459V82.4098L91.7565 79.541L93.4609 75.8525H95.1652L96.4435 73.8033L98.1478 72.1639L99 71.3443V69.7049V67.2459V64.7869L96.4435 62.3279L95.1652 59.8689L91.7565 58.6393L87.4957 57L85.7913 52.9016L81.1043 51.6721L78.5478 52.9016L73.8609 54.9508H69.1739L66.1913 51.6721L63.2087 44.2951L61.5043 41.0164L59.8 36.0984L63.2087 32.8197L67.4696 34.8689L69.1739 38.1475L71.3043 41.0164L73.8609 38.1475L75.5652 34.8689L78.5478 30.3607L81.1043 27.9016L85.7913 26.2623H90.0522H93.4609H96.4435V23.8033V22.5738V20.9344C95.5913 20.5246 93.4609 18.9672 91.7565 16.0164C90.7339 14.7049 91.3304 14.377 91.7565 14.377H90.0522L88.7739 16.0164L85.7913 17.6557V16.0164L83.2348 14.377V10.6885Z"
      fill="#3BC838"
      stroke="black"
    />
    <path
      d="M61.5238 11.8398L75.5476 4.90234L95.9048 1H102.238L119.881 6.20312L132.095 14.0078L147.024 30.0508"
      stroke="black"
    />
    <path
      d="M133 37H144.812L142.188 39.8194L139.125 42.6389L142.188 48.6806L144.812 55.9306L147 60.3611V65.1944L142.188 68.8194L139.125 75.2639V81.3056V88.9583L133 95H127.312L121.625 88.9583V81.3056V75.2639V68.8194L117.688 62.7778L110.25 60.3611V55.9306L108.062 51.9028L105 45.8611V42.6389L110.25 37H121.625H133Z"
      fill="#3BC838"
      stroke="black"
    />
    <path
      d="M104.048 9.47366V2.73438H113.875L127.447 9.47366L139.614 23.7946L144.762 30.1127V32.2188L139.614 30.1127L134.934 32.2188L130.255 30.1127L127.447 26.3219H123.703L118.087 30.1127V26.3219V20.425L121.363 17.0554H127.447V14.5281H123.703L121.363 9.47366H118.087L113.875 14.5281L109.195 17.0554L104.048 14.5281V9.47366Z"
      fill="#3BC838"
      stroke="black"
    />
  </g>
  <defs>
    <filter
      id="filter0_d"
      x="-4"
      y="0.5"
      width="179"
      height="119.5"
      filterUnits="userSpaceOnUse"
      color-interpolation-filters="sRGB"
    >
      <feFlood flood-opacity="0" result="BackgroundImageFix" />
      <feColorMatrix
        in="SourceAlpha"
        type="matrix"
        values="0 0 0 0 0 0 0 0 0 0 0 0 0 0 0 0 0 0 127 0"
      />
      <feOffset dy="4" />
      <feGaussianBlur stdDeviation="2" />
      <feColorMatrix
        type="matrix"
        values="0 0 0 0 0 0 0 0 0 0 0 0 0 0 0 0 0 0 0.25 0"
      />
      <feBlend
        mode="normal"
        in2="BackgroundImageFix"
        result="effect1_dropShadow"
      />
      <feBlend
        mode="normal"
        in="SourceGraphic"
        in2="effect1_dropShadow"
        result="shape"
      />
    </filter>
  </defs>
</svg>
